<mxfile host="app.diagrams.net" modified="2023-07-26T16:04:15.184Z" agent="Mozilla/5.0 (Windows NT 10.0; Win64; x64) AppleWebKit/537.36 (KHTML, like Gecko) Chrome/114.0.0.0 Safari/537.36" etag="jnMJKR3WjJvSH5-xGCr1" version="21.6.5" type="device">
  <diagram name="Page-1" id="SBlvjZ8Goc2oh6Bi6xWZ">
    <mxGraphModel dx="1979" dy="1794" grid="1" gridSize="10" guides="1" tooltips="1" connect="1" arrows="1" fold="1" page="1" pageScale="1" pageWidth="850" pageHeight="1100" math="0" shadow="0">
      <root>
        <mxCell id="0" />
        <mxCell id="1" parent="0" />
        <mxCell id="mnPYQXHGAl356lRwc3sJ-50" value="" style="ellipse;html=1;shape=startState;fillColor=#000000;strokeColor=#ff0000;" parent="1" vertex="1">
          <mxGeometry x="425" y="-260" width="30" height="30" as="geometry" />
        </mxCell>
        <mxCell id="mnPYQXHGAl356lRwc3sJ-52" value="Search Query" style="rounded=1;whiteSpace=wrap;html=1;arcSize=40;fontColor=#000000;fillColor=#ffffc0;strokeColor=#ff0000;" parent="1" vertex="1">
          <mxGeometry x="380" y="110" width="120" height="40" as="geometry" />
        </mxCell>
        <mxCell id="mnPYQXHGAl356lRwc3sJ-53" value="" style="edgeStyle=orthogonalEdgeStyle;html=1;verticalAlign=bottom;endArrow=open;endSize=8;strokeColor=#ff0000;rounded=0;" parent="1" source="mnPYQXHGAl356lRwc3sJ-52" edge="1">
          <mxGeometry relative="1" as="geometry">
            <mxPoint x="440" y="210" as="targetPoint" />
          </mxGeometry>
        </mxCell>
        <mxCell id="mnPYQXHGAl356lRwc3sJ-54" value="Browse Results" style="rounded=1;whiteSpace=wrap;html=1;arcSize=40;fontColor=#000000;fillColor=#ffffc0;strokeColor=#ff0000;" parent="1" vertex="1">
          <mxGeometry x="380" y="310" width="120" height="40" as="geometry" />
        </mxCell>
        <mxCell id="mnPYQXHGAl356lRwc3sJ-55" value="" style="edgeStyle=orthogonalEdgeStyle;html=1;verticalAlign=bottom;endArrow=open;endSize=8;strokeColor=#ff0000;rounded=0;" parent="1" source="mnPYQXHGAl356lRwc3sJ-54" edge="1">
          <mxGeometry relative="1" as="geometry">
            <mxPoint x="440" y="410" as="targetPoint" />
          </mxGeometry>
        </mxCell>
        <mxCell id="mnPYQXHGAl356lRwc3sJ-56" value="" style="rhombus;whiteSpace=wrap;html=1;fontColor=#000000;fillColor=#ffffc0;strokeColor=#ff0000;" parent="1" vertex="1">
          <mxGeometry x="400" y="210" width="80" height="40" as="geometry" />
        </mxCell>
        <mxCell id="mnPYQXHGAl356lRwc3sJ-59" value="" style="edgeStyle=orthogonalEdgeStyle;html=1;verticalAlign=bottom;endArrow=open;endSize=8;strokeColor=#ff0000;rounded=0;" parent="1" edge="1">
          <mxGeometry relative="1" as="geometry">
            <mxPoint x="439.65999999999997" y="310" as="targetPoint" />
            <mxPoint x="439.65999999999997" y="250" as="sourcePoint" />
          </mxGeometry>
        </mxCell>
        <mxCell id="mnPYQXHGAl356lRwc3sJ-60" value="Select Product" style="rounded=1;whiteSpace=wrap;html=1;arcSize=40;fontColor=#000000;fillColor=#ffffc0;strokeColor=#ff0000;" parent="1" vertex="1">
          <mxGeometry x="380" y="520" width="120" height="40" as="geometry" />
        </mxCell>
        <mxCell id="mnPYQXHGAl356lRwc3sJ-61" value="" style="edgeStyle=orthogonalEdgeStyle;html=1;verticalAlign=bottom;endArrow=open;endSize=8;strokeColor=#ff0000;rounded=0;" parent="1" source="mnPYQXHGAl356lRwc3sJ-60" edge="1">
          <mxGeometry relative="1" as="geometry">
            <mxPoint x="440" y="610" as="targetPoint" />
          </mxGeometry>
        </mxCell>
        <mxCell id="mnPYQXHGAl356lRwc3sJ-62" value="Condition" style="rhombus;whiteSpace=wrap;html=1;fontColor=#000000;fillColor=#ffffc0;strokeColor=#ff0000;" parent="1" vertex="1">
          <mxGeometry x="400" y="930" width="80" height="40" as="geometry" />
        </mxCell>
        <mxCell id="mnPYQXHGAl356lRwc3sJ-63" value="[Continue Shopping]" style="edgeStyle=orthogonalEdgeStyle;html=1;align=left;verticalAlign=bottom;endArrow=open;endSize=8;strokeColor=#ff0000;rounded=0;entryX=1;entryY=0.5;entryDx=0;entryDy=0;" parent="1" source="mnPYQXHGAl356lRwc3sJ-62" target="mnPYQXHGAl356lRwc3sJ-56" edge="1">
          <mxGeometry x="-1" relative="1" as="geometry">
            <mxPoint x="550" y="410" as="targetPoint" />
            <Array as="points">
              <mxPoint x="590" y="950" />
              <mxPoint x="590" y="230" />
            </Array>
            <mxPoint as="offset" />
          </mxGeometry>
        </mxCell>
        <mxCell id="mnPYQXHGAl356lRwc3sJ-64" value="[Checkout]" style="edgeStyle=orthogonalEdgeStyle;html=1;align=left;verticalAlign=top;endArrow=open;endSize=8;strokeColor=#ff0000;rounded=0;" parent="1" source="mnPYQXHGAl356lRwc3sJ-62" edge="1">
          <mxGeometry x="-1" relative="1" as="geometry">
            <mxPoint x="440" y="1030" as="targetPoint" />
            <mxPoint as="offset" />
          </mxGeometry>
        </mxCell>
        <mxCell id="mnPYQXHGAl356lRwc3sJ-66" value="Start Checkout Process" style="rounded=1;whiteSpace=wrap;html=1;arcSize=40;fontColor=#000000;fillColor=#ffffc0;strokeColor=#ff0000;" parent="1" vertex="1">
          <mxGeometry x="380" y="1030" width="120" height="40" as="geometry" />
        </mxCell>
        <mxCell id="mnPYQXHGAl356lRwc3sJ-67" value="" style="edgeStyle=orthogonalEdgeStyle;html=1;verticalAlign=bottom;endArrow=open;endSize=8;strokeColor=#ff0000;rounded=0;" parent="1" source="mnPYQXHGAl356lRwc3sJ-66" edge="1">
          <mxGeometry relative="1" as="geometry">
            <mxPoint x="440" y="1100" as="targetPoint" />
          </mxGeometry>
        </mxCell>
        <mxCell id="mnPYQXHGAl356lRwc3sJ-68" value="" style="shape=line;html=1;strokeWidth=6;strokeColor=#ff0000;" parent="1" vertex="1">
          <mxGeometry x="275" y="1100" width="330" height="10" as="geometry" />
        </mxCell>
        <mxCell id="mnPYQXHGAl356lRwc3sJ-69" value="" style="edgeStyle=orthogonalEdgeStyle;html=1;verticalAlign=bottom;endArrow=open;endSize=8;strokeColor=#ff0000;rounded=0;" parent="1" source="mnPYQXHGAl356lRwc3sJ-68" edge="1">
          <mxGeometry relative="1" as="geometry">
            <mxPoint x="440" y="1180" as="targetPoint" />
          </mxGeometry>
        </mxCell>
        <mxCell id="mnPYQXHGAl356lRwc3sJ-72" value="Input Card" style="rounded=1;whiteSpace=wrap;html=1;arcSize=40;fontColor=#000000;fillColor=#ffffc0;strokeColor=#ff0000;" parent="1" vertex="1">
          <mxGeometry x="380" y="1180" width="120" height="40" as="geometry" />
        </mxCell>
        <mxCell id="mnPYQXHGAl356lRwc3sJ-73" value="" style="edgeStyle=orthogonalEdgeStyle;html=1;verticalAlign=bottom;endArrow=open;endSize=8;strokeColor=#ff0000;rounded=0;" parent="1" source="mnPYQXHGAl356lRwc3sJ-72" edge="1">
          <mxGeometry relative="1" as="geometry">
            <mxPoint x="440" y="1280" as="targetPoint" />
          </mxGeometry>
        </mxCell>
        <mxCell id="mnPYQXHGAl356lRwc3sJ-78" value="" style="edgeStyle=orthogonalEdgeStyle;html=1;verticalAlign=bottom;endArrow=open;endSize=8;strokeColor=#ff0000;rounded=0;" parent="1" edge="1">
          <mxGeometry relative="1" as="geometry">
            <mxPoint x="305" y="1180" as="targetPoint" />
            <mxPoint x="305" y="1110" as="sourcePoint" />
          </mxGeometry>
        </mxCell>
        <mxCell id="mnPYQXHGAl356lRwc3sJ-79" value="Input Shipping Address" style="rounded=1;whiteSpace=wrap;html=1;arcSize=40;fontColor=#000000;fillColor=#ffffc0;strokeColor=#ff0000;" parent="1" vertex="1">
          <mxGeometry x="245" y="1180" width="120" height="40" as="geometry" />
        </mxCell>
        <mxCell id="mnPYQXHGAl356lRwc3sJ-80" value="" style="edgeStyle=orthogonalEdgeStyle;html=1;verticalAlign=bottom;endArrow=open;endSize=8;strokeColor=#ff0000;rounded=0;" parent="1" source="mnPYQXHGAl356lRwc3sJ-79" edge="1">
          <mxGeometry relative="1" as="geometry">
            <mxPoint x="305" y="1280" as="targetPoint" />
          </mxGeometry>
        </mxCell>
        <mxCell id="mnPYQXHGAl356lRwc3sJ-81" value="" style="edgeStyle=orthogonalEdgeStyle;html=1;verticalAlign=bottom;endArrow=open;endSize=8;strokeColor=#ff0000;rounded=0;" parent="1" edge="1">
          <mxGeometry relative="1" as="geometry">
            <mxPoint x="585" y="1180" as="targetPoint" />
            <mxPoint x="585" y="1110" as="sourcePoint" />
          </mxGeometry>
        </mxCell>
        <mxCell id="mnPYQXHGAl356lRwc3sJ-82" value="Input Billing Address" style="rounded=1;whiteSpace=wrap;html=1;arcSize=40;fontColor=#000000;fillColor=#ffffc0;strokeColor=#ff0000;" parent="1" vertex="1">
          <mxGeometry x="525" y="1180" width="120" height="40" as="geometry" />
        </mxCell>
        <mxCell id="mnPYQXHGAl356lRwc3sJ-83" value="" style="edgeStyle=orthogonalEdgeStyle;html=1;verticalAlign=bottom;endArrow=open;endSize=8;strokeColor=#ff0000;rounded=0;" parent="1" source="mnPYQXHGAl356lRwc3sJ-82" edge="1">
          <mxGeometry relative="1" as="geometry">
            <mxPoint x="585" y="1280" as="targetPoint" />
          </mxGeometry>
        </mxCell>
        <mxCell id="mnPYQXHGAl356lRwc3sJ-86" value="" style="shape=line;html=1;strokeWidth=6;strokeColor=#ff0000;" parent="1" vertex="1">
          <mxGeometry x="275" y="1280" width="330" height="10" as="geometry" />
        </mxCell>
        <mxCell id="mnPYQXHGAl356lRwc3sJ-87" value="" style="edgeStyle=orthogonalEdgeStyle;html=1;verticalAlign=bottom;endArrow=open;endSize=8;strokeColor=#ff0000;rounded=0;" parent="1" source="mnPYQXHGAl356lRwc3sJ-86" edge="1">
          <mxGeometry relative="1" as="geometry">
            <mxPoint x="440" y="1360" as="targetPoint" />
          </mxGeometry>
        </mxCell>
        <mxCell id="mnPYQXHGAl356lRwc3sJ-90" value="Confirm Purchase" style="rhombus;whiteSpace=wrap;html=1;fontColor=#000000;fillColor=#ffffc0;strokeColor=#ff0000;" parent="1" vertex="1">
          <mxGeometry x="400" y="1540" width="80" height="40" as="geometry" />
        </mxCell>
        <mxCell id="mnPYQXHGAl356lRwc3sJ-92" value="[yes]" style="edgeStyle=orthogonalEdgeStyle;html=1;align=left;verticalAlign=top;endArrow=open;endSize=8;strokeColor=#ff0000;rounded=0;" parent="1" source="mnPYQXHGAl356lRwc3sJ-90" edge="1">
          <mxGeometry x="-0.3387" relative="1" as="geometry">
            <mxPoint x="440" y="1640" as="targetPoint" />
            <mxPoint as="offset" />
          </mxGeometry>
        </mxCell>
        <mxCell id="mnPYQXHGAl356lRwc3sJ-102" value="" style="shape=line;html=1;strokeWidth=6;strokeColor=#ff0000;" parent="1" vertex="1">
          <mxGeometry x="340" y="770" width="200" height="10" as="geometry" />
        </mxCell>
        <mxCell id="mnPYQXHGAl356lRwc3sJ-104" value="" style="shape=line;html=1;strokeWidth=6;strokeColor=#ff0000;" parent="1" vertex="1">
          <mxGeometry x="340" y="890" width="200" height="10" as="geometry" />
        </mxCell>
        <mxCell id="mnPYQXHGAl356lRwc3sJ-105" value="" style="edgeStyle=orthogonalEdgeStyle;html=1;verticalAlign=bottom;endArrow=open;endSize=8;strokeColor=#ff0000;rounded=0;entryX=0.5;entryY=0;entryDx=0;entryDy=0;" parent="1" source="mnPYQXHGAl356lRwc3sJ-104" target="mnPYQXHGAl356lRwc3sJ-62" edge="1">
          <mxGeometry relative="1" as="geometry">
            <mxPoint x="440" y="920" as="targetPoint" />
          </mxGeometry>
        </mxCell>
        <mxCell id="mnPYQXHGAl356lRwc3sJ-106" value="Process Order" style="rounded=1;whiteSpace=wrap;html=1;arcSize=40;fontColor=#000000;fillColor=#ffffc0;strokeColor=#ff0000;" parent="1" vertex="1">
          <mxGeometry x="380" y="1640" width="120" height="40" as="geometry" />
        </mxCell>
        <mxCell id="mnPYQXHGAl356lRwc3sJ-107" value="" style="edgeStyle=orthogonalEdgeStyle;html=1;verticalAlign=bottom;endArrow=open;endSize=8;strokeColor=#ff0000;rounded=0;" parent="1" source="mnPYQXHGAl356lRwc3sJ-106" edge="1">
          <mxGeometry relative="1" as="geometry">
            <mxPoint x="440" y="1740" as="targetPoint" />
          </mxGeometry>
        </mxCell>
        <mxCell id="mnPYQXHGAl356lRwc3sJ-108" value="" style="shape=line;html=1;strokeWidth=6;strokeColor=#ff0000;" parent="1" vertex="1">
          <mxGeometry x="275" y="1740" width="330" height="10" as="geometry" />
        </mxCell>
        <mxCell id="mnPYQXHGAl356lRwc3sJ-109" value="Process Payment&lt;br&gt;(stripe)" style="rounded=1;whiteSpace=wrap;html=1;arcSize=40;fontColor=#000000;fillColor=#ffffc0;strokeColor=#ff0000;" parent="1" vertex="1">
          <mxGeometry x="260" y="1810" width="120" height="40" as="geometry" />
        </mxCell>
        <mxCell id="mnPYQXHGAl356lRwc3sJ-110" value="" style="edgeStyle=orthogonalEdgeStyle;html=1;verticalAlign=bottom;endArrow=open;endSize=8;strokeColor=#ff0000;rounded=0;" parent="1" source="mnPYQXHGAl356lRwc3sJ-109" edge="1">
          <mxGeometry relative="1" as="geometry">
            <mxPoint x="320" y="1910" as="targetPoint" />
          </mxGeometry>
        </mxCell>
        <mxCell id="mnPYQXHGAl356lRwc3sJ-111" value="" style="edgeStyle=orthogonalEdgeStyle;html=1;verticalAlign=bottom;endArrow=open;endSize=8;strokeColor=#ff0000;rounded=0;" parent="1" edge="1">
          <mxGeometry relative="1" as="geometry">
            <mxPoint x="319.64" y="1810" as="targetPoint" />
            <mxPoint x="319.64" y="1750" as="sourcePoint" />
          </mxGeometry>
        </mxCell>
        <mxCell id="mnPYQXHGAl356lRwc3sJ-112" value="Email Order Details" style="rounded=1;whiteSpace=wrap;html=1;arcSize=40;fontColor=#000000;fillColor=#ffffc0;strokeColor=#ff0000;" parent="1" vertex="1">
          <mxGeometry x="380" y="1810" width="120" height="40" as="geometry" />
        </mxCell>
        <mxCell id="mnPYQXHGAl356lRwc3sJ-113" value="" style="edgeStyle=orthogonalEdgeStyle;html=1;verticalAlign=bottom;endArrow=open;endSize=8;strokeColor=#ff0000;rounded=0;" parent="1" source="mnPYQXHGAl356lRwc3sJ-112" edge="1">
          <mxGeometry relative="1" as="geometry">
            <mxPoint x="440" y="1910" as="targetPoint" />
          </mxGeometry>
        </mxCell>
        <mxCell id="mnPYQXHGAl356lRwc3sJ-114" value="" style="edgeStyle=orthogonalEdgeStyle;html=1;verticalAlign=bottom;endArrow=open;endSize=8;strokeColor=#ff0000;rounded=0;" parent="1" edge="1">
          <mxGeometry relative="1" as="geometry">
            <mxPoint x="439.64" y="1810" as="targetPoint" />
            <mxPoint x="439.64" y="1750" as="sourcePoint" />
          </mxGeometry>
        </mxCell>
        <mxCell id="mnPYQXHGAl356lRwc3sJ-115" value="Stripe Payment" style="rounded=1;whiteSpace=wrap;html=1;arcSize=40;fontColor=#000000;fillColor=#ffffc0;strokeColor=#ff0000;" parent="1" vertex="1">
          <mxGeometry x="500" y="1810" width="120" height="40" as="geometry" />
        </mxCell>
        <mxCell id="mnPYQXHGAl356lRwc3sJ-116" value="" style="edgeStyle=orthogonalEdgeStyle;html=1;verticalAlign=bottom;endArrow=open;endSize=8;strokeColor=#ff0000;rounded=0;" parent="1" source="mnPYQXHGAl356lRwc3sJ-115" edge="1">
          <mxGeometry relative="1" as="geometry">
            <mxPoint x="560" y="1910" as="targetPoint" />
          </mxGeometry>
        </mxCell>
        <mxCell id="mnPYQXHGAl356lRwc3sJ-117" value="" style="edgeStyle=orthogonalEdgeStyle;html=1;verticalAlign=bottom;endArrow=open;endSize=8;strokeColor=#ff0000;rounded=0;" parent="1" edge="1">
          <mxGeometry relative="1" as="geometry">
            <mxPoint x="559.64" y="1810" as="targetPoint" />
            <mxPoint x="559.64" y="1750" as="sourcePoint" />
          </mxGeometry>
        </mxCell>
        <mxCell id="mnPYQXHGAl356lRwc3sJ-126" value="Add to Cart" style="rounded=1;whiteSpace=wrap;html=1;arcSize=40;fontColor=#000000;fillColor=#ffffc0;strokeColor=#ff0000;" parent="1" vertex="1">
          <mxGeometry x="380" y="820" width="120" height="40" as="geometry" />
        </mxCell>
        <mxCell id="mnPYQXHGAl356lRwc3sJ-127" value="" style="edgeStyle=orthogonalEdgeStyle;html=1;verticalAlign=bottom;endArrow=open;endSize=8;strokeColor=#ff0000;rounded=0;" parent="1" source="mnPYQXHGAl356lRwc3sJ-126" edge="1">
          <mxGeometry relative="1" as="geometry">
            <mxPoint x="440" y="890" as="targetPoint" />
          </mxGeometry>
        </mxCell>
        <mxCell id="mnPYQXHGAl356lRwc3sJ-128" value="Go Back?" style="rhombus;whiteSpace=wrap;html=1;fontColor=#000000;fillColor=#ffffc0;strokeColor=#ff0000;" parent="1" vertex="1">
          <mxGeometry x="400" y="610" width="80" height="40" as="geometry" />
        </mxCell>
        <mxCell id="mnPYQXHGAl356lRwc3sJ-129" value="no" style="edgeStyle=orthogonalEdgeStyle;html=1;align=left;verticalAlign=bottom;endArrow=open;endSize=8;strokeColor=#ff0000;rounded=0;" parent="1" source="mnPYQXHGAl356lRwc3sJ-128" target="mnPYQXHGAl356lRwc3sJ-102" edge="1">
          <mxGeometry x="-0.6799" relative="1" as="geometry">
            <mxPoint x="585" y="630" as="targetPoint" />
            <mxPoint as="offset" />
          </mxGeometry>
        </mxCell>
        <mxCell id="mnPYQXHGAl356lRwc3sJ-130" value="yes" style="edgeStyle=orthogonalEdgeStyle;html=1;align=left;verticalAlign=top;endArrow=open;endSize=8;strokeColor=#ff0000;rounded=0;entryX=0;entryY=0.5;entryDx=0;entryDy=0;" parent="1" source="mnPYQXHGAl356lRwc3sJ-128" target="mnPYQXHGAl356lRwc3sJ-56" edge="1">
          <mxGeometry x="-0.8651" relative="1" as="geometry">
            <mxPoint x="290" y="360" as="targetPoint" />
            <Array as="points">
              <mxPoint x="320" y="630" />
              <mxPoint x="320" y="230" />
            </Array>
            <mxPoint as="offset" />
          </mxGeometry>
        </mxCell>
        <mxCell id="mnPYQXHGAl356lRwc3sJ-133" value="Search Again?" style="rhombus;whiteSpace=wrap;html=1;fontColor=#000000;fillColor=#ffffc0;strokeColor=#ff0000;" parent="1" vertex="1">
          <mxGeometry x="400" y="410" width="80" height="40" as="geometry" />
        </mxCell>
        <mxCell id="mnPYQXHGAl356lRwc3sJ-134" value="no" style="edgeStyle=orthogonalEdgeStyle;html=1;align=left;verticalAlign=bottom;endArrow=open;endSize=8;strokeColor=#ff0000;rounded=0;" parent="1" source="mnPYQXHGAl356lRwc3sJ-133" target="mnPYQXHGAl356lRwc3sJ-60" edge="1">
          <mxGeometry x="-0.1429" relative="1" as="geometry">
            <mxPoint x="580" y="430" as="targetPoint" />
            <mxPoint as="offset" />
          </mxGeometry>
        </mxCell>
        <mxCell id="mnPYQXHGAl356lRwc3sJ-135" value="yes" style="edgeStyle=orthogonalEdgeStyle;html=1;align=left;verticalAlign=top;endArrow=open;endSize=8;strokeColor=#ff0000;rounded=0;entryX=0;entryY=0.5;entryDx=0;entryDy=0;" parent="1" source="mnPYQXHGAl356lRwc3sJ-133" target="mnPYQXHGAl356lRwc3sJ-137" edge="1">
          <mxGeometry x="-0.8462" relative="1" as="geometry">
            <mxPoint x="340" y="60" as="targetPoint" />
            <Array as="points">
              <mxPoint x="340" y="430" />
              <mxPoint x="340" y="30" />
            </Array>
            <mxPoint as="offset" />
          </mxGeometry>
        </mxCell>
        <mxCell id="mnPYQXHGAl356lRwc3sJ-137" value="" style="rhombus;whiteSpace=wrap;html=1;fontColor=#000000;fillColor=#ffffc0;strokeColor=#ff0000;" parent="1" vertex="1">
          <mxGeometry x="400" y="10" width="80" height="40" as="geometry" />
        </mxCell>
        <mxCell id="mnPYQXHGAl356lRwc3sJ-139" value="" style="edgeStyle=orthogonalEdgeStyle;html=1;align=left;verticalAlign=top;endArrow=open;endSize=8;strokeColor=#ff0000;rounded=0;" parent="1" source="mnPYQXHGAl356lRwc3sJ-137" edge="1">
          <mxGeometry x="-1" relative="1" as="geometry">
            <mxPoint x="440" y="110" as="targetPoint" />
          </mxGeometry>
        </mxCell>
        <mxCell id="mnPYQXHGAl356lRwc3sJ-140" value="" style="edgeStyle=orthogonalEdgeStyle;html=1;align=left;verticalAlign=top;endArrow=open;endSize=8;strokeColor=#ff0000;rounded=0;exitX=0.516;exitY=0.845;exitDx=0;exitDy=0;exitPerimeter=0;" parent="1" source="mnPYQXHGAl356lRwc3sJ-50" edge="1">
          <mxGeometry x="-1" relative="1" as="geometry">
            <mxPoint x="440" y="-190" as="targetPoint" />
            <mxPoint x="439.66" y="-150" as="sourcePoint" />
          </mxGeometry>
        </mxCell>
        <mxCell id="mnPYQXHGAl356lRwc3sJ-141" value="" style="edgeStyle=orthogonalEdgeStyle;html=1;verticalAlign=bottom;endArrow=open;endSize=8;strokeColor=#ff0000;rounded=0;entryX=0.5;entryY=0;entryDx=0;entryDy=0;" parent="1" target="mnPYQXHGAl356lRwc3sJ-126" edge="1">
          <mxGeometry relative="1" as="geometry">
            <mxPoint x="439.9" y="810" as="targetPoint" />
            <mxPoint x="439.9" y="780" as="sourcePoint" />
          </mxGeometry>
        </mxCell>
        <mxCell id="mnPYQXHGAl356lRwc3sJ-142" value="" style="shape=line;html=1;strokeWidth=6;strokeColor=#ff0000;" parent="1" vertex="1">
          <mxGeometry x="270" y="1910" width="340" height="10" as="geometry" />
        </mxCell>
        <mxCell id="mnPYQXHGAl356lRwc3sJ-143" value="" style="edgeStyle=orthogonalEdgeStyle;html=1;verticalAlign=bottom;endArrow=open;endSize=8;strokeColor=#ff0000;rounded=0;" parent="1" source="mnPYQXHGAl356lRwc3sJ-142" edge="1">
          <mxGeometry relative="1" as="geometry">
            <mxPoint x="440" y="1990" as="targetPoint" />
          </mxGeometry>
        </mxCell>
        <mxCell id="mnPYQXHGAl356lRwc3sJ-144" value="" style="ellipse;html=1;shape=endState;fillColor=#000000;strokeColor=#ff0000;" parent="1" vertex="1">
          <mxGeometry x="425" y="2090" width="30" height="30" as="geometry" />
        </mxCell>
        <mxCell id="mnPYQXHGAl356lRwc3sJ-145" value="Ship" style="rounded=1;whiteSpace=wrap;html=1;arcSize=40;fontColor=#000000;fillColor=#ffffc0;strokeColor=#ff0000;" parent="1" vertex="1">
          <mxGeometry x="380" y="1990" width="120" height="40" as="geometry" />
        </mxCell>
        <mxCell id="mnPYQXHGAl356lRwc3sJ-146" value="" style="edgeStyle=orthogonalEdgeStyle;html=1;verticalAlign=bottom;endArrow=open;endSize=8;strokeColor=#ff0000;rounded=0;" parent="1" source="mnPYQXHGAl356lRwc3sJ-145" edge="1">
          <mxGeometry relative="1" as="geometry">
            <mxPoint x="440" y="2090" as="targetPoint" />
          </mxGeometry>
        </mxCell>
        <mxCell id="mnPYQXHGAl356lRwc3sJ-152" value="Remove Item(s)?" style="rhombus;whiteSpace=wrap;html=1;fontColor=#000000;fillColor=#ffffc0;strokeColor=#ff0000;" parent="1" vertex="1">
          <mxGeometry x="210" y="1540" width="80" height="40" as="geometry" />
        </mxCell>
        <mxCell id="mnPYQXHGAl356lRwc3sJ-153" value="no" style="edgeStyle=orthogonalEdgeStyle;html=1;align=left;verticalAlign=bottom;endArrow=open;endSize=8;strokeColor=#ff0000;rounded=0;" parent="1" edge="1">
          <mxGeometry x="-1" relative="1" as="geometry">
            <mxPoint x="250" y="1460" as="targetPoint" />
            <mxPoint x="249.76" y="1540" as="sourcePoint" />
            <Array as="points">
              <mxPoint x="250" y="1490" />
            </Array>
          </mxGeometry>
        </mxCell>
        <mxCell id="mnPYQXHGAl356lRwc3sJ-154" value="yes" style="edgeStyle=orthogonalEdgeStyle;html=1;align=left;verticalAlign=top;endArrow=open;endSize=8;strokeColor=#ff0000;rounded=0;entryX=0.5;entryY=0;entryDx=0;entryDy=0;" parent="1" source="mnPYQXHGAl356lRwc3sJ-152" target="mnPYQXHGAl356lRwc3sJ-155" edge="1">
          <mxGeometry x="-0.36" relative="1" as="geometry">
            <mxPoint x="250" y="1640" as="targetPoint" />
            <mxPoint as="offset" />
          </mxGeometry>
        </mxCell>
        <mxCell id="mnPYQXHGAl356lRwc3sJ-155" value="How Many?" style="rounded=1;whiteSpace=wrap;html=1;arcSize=40;fontColor=#000000;fillColor=#ffffc0;strokeColor=#ff0000;" parent="1" vertex="1">
          <mxGeometry x="20" y="1580" width="120" height="40" as="geometry" />
        </mxCell>
        <mxCell id="mnPYQXHGAl356lRwc3sJ-161" value="" style="edgeStyle=orthogonalEdgeStyle;html=1;verticalAlign=bottom;endArrow=open;endSize=8;strokeColor=#ff0000;rounded=0;exitX=0;exitY=0.5;exitDx=0;exitDy=0;entryX=1;entryY=0.5;entryDx=0;entryDy=0;" parent="1" edge="1">
          <mxGeometry relative="1" as="geometry">
            <mxPoint x="290" y="1559.58" as="targetPoint" />
            <mxPoint x="400" y="1559.58" as="sourcePoint" />
          </mxGeometry>
        </mxCell>
        <mxCell id="mnPYQXHGAl356lRwc3sJ-165" value="[no]" style="edgeLabel;html=1;align=center;verticalAlign=middle;resizable=0;points=[];" parent="mnPYQXHGAl356lRwc3sJ-161" vertex="1" connectable="0">
          <mxGeometry x="-0.1285" y="-1" relative="1" as="geometry">
            <mxPoint as="offset" />
          </mxGeometry>
        </mxCell>
        <mxCell id="mnPYQXHGAl356lRwc3sJ-162" value="" style="rhombus;whiteSpace=wrap;html=1;fontColor=#000000;fillColor=#ffffc0;strokeColor=#ff0000;" parent="1" vertex="1">
          <mxGeometry x="400" y="1360" width="80" height="40" as="geometry" />
        </mxCell>
        <mxCell id="mnPYQXHGAl356lRwc3sJ-164" value="" style="edgeStyle=orthogonalEdgeStyle;html=1;align=left;verticalAlign=top;endArrow=open;endSize=8;strokeColor=#ff0000;rounded=0;entryX=0.5;entryY=0;entryDx=0;entryDy=0;" parent="1" source="mnPYQXHGAl356lRwc3sJ-162" target="mnPYQXHGAl356lRwc3sJ-90" edge="1">
          <mxGeometry x="-1" relative="1" as="geometry">
            <mxPoint x="440" y="1460" as="targetPoint" />
          </mxGeometry>
        </mxCell>
        <mxCell id="mnPYQXHGAl356lRwc3sJ-166" value="Remove Item(s)" style="rounded=1;whiteSpace=wrap;html=1;arcSize=40;fontColor=#000000;fillColor=#ffffc0;strokeColor=#ff0000;" parent="1" vertex="1">
          <mxGeometry x="-200" y="1580" width="120" height="40" as="geometry" />
        </mxCell>
        <mxCell id="mnPYQXHGAl356lRwc3sJ-168" value="" style="edgeStyle=orthogonalEdgeStyle;html=1;verticalAlign=bottom;endArrow=open;endSize=8;strokeColor=#ff0000;rounded=0;exitX=0;exitY=0.5;exitDx=0;exitDy=0;entryX=1;entryY=0.5;entryDx=0;entryDy=0;" parent="1" source="mnPYQXHGAl356lRwc3sJ-155" target="mnPYQXHGAl356lRwc3sJ-166" edge="1">
          <mxGeometry relative="1" as="geometry">
            <mxPoint x="450" y="1750" as="targetPoint" />
            <mxPoint x="450" y="1690" as="sourcePoint" />
          </mxGeometry>
        </mxCell>
        <mxCell id="mnPYQXHGAl356lRwc3sJ-169" value="" style="edgeStyle=orthogonalEdgeStyle;html=1;verticalAlign=bottom;endArrow=open;endSize=8;strokeColor=#ff0000;rounded=0;exitX=0.5;exitY=0;exitDx=0;exitDy=0;entryX=0;entryY=0.5;entryDx=0;entryDy=0;" parent="1" source="mnPYQXHGAl356lRwc3sJ-166" target="mnPYQXHGAl356lRwc3sJ-162" edge="1">
          <mxGeometry relative="1" as="geometry">
            <mxPoint x="210" y="1350" as="targetPoint" />
            <mxPoint x="30" y="1610" as="sourcePoint" />
            <Array as="points">
              <mxPoint x="-140" y="1380" />
            </Array>
          </mxGeometry>
        </mxCell>
        <mxCell id="mnPYQXHGAl356lRwc3sJ-170" value="Cancel Order?" style="rhombus;whiteSpace=wrap;html=1;fontColor=#000000;fillColor=#ffffc0;strokeColor=#ff0000;" parent="1" vertex="1">
          <mxGeometry x="210" y="1420" width="80" height="40" as="geometry" />
        </mxCell>
        <mxCell id="mnPYQXHGAl356lRwc3sJ-171" value="no" style="edgeStyle=orthogonalEdgeStyle;html=1;align=left;verticalAlign=bottom;endArrow=open;endSize=8;strokeColor=#ff0000;rounded=0;entryX=0;entryY=0.5;entryDx=0;entryDy=0;" parent="1" source="mnPYQXHGAl356lRwc3sJ-170" target="mnPYQXHGAl356lRwc3sJ-162" edge="1">
          <mxGeometry x="-1" relative="1" as="geometry">
            <mxPoint x="330" y="1340" as="targetPoint" />
          </mxGeometry>
        </mxCell>
        <mxCell id="mnPYQXHGAl356lRwc3sJ-172" value="yes" style="edgeStyle=orthogonalEdgeStyle;html=1;align=left;verticalAlign=top;endArrow=open;endSize=8;strokeColor=#ff0000;rounded=0;" parent="1" source="mnPYQXHGAl356lRwc3sJ-170" target="mnPYQXHGAl356lRwc3sJ-174" edge="1">
          <mxGeometry x="-1" relative="1" as="geometry">
            <mxPoint x="100" y="1330" as="targetPoint" />
          </mxGeometry>
        </mxCell>
        <mxCell id="mnPYQXHGAl356lRwc3sJ-174" value="Save Cart for Later?" style="rhombus;whiteSpace=wrap;html=1;fontColor=#000000;fillColor=#ffffc0;strokeColor=#ff0000;" parent="1" vertex="1">
          <mxGeometry x="60" y="1260" width="80" height="40" as="geometry" />
        </mxCell>
        <mxCell id="mnPYQXHGAl356lRwc3sJ-175" value="no" style="edgeStyle=orthogonalEdgeStyle;html=1;align=left;verticalAlign=bottom;endArrow=open;endSize=8;strokeColor=#ff0000;rounded=0;" parent="1" target="mnPYQXHGAl356lRwc3sJ-176" edge="1">
          <mxGeometry x="-1" relative="1" as="geometry">
            <mxPoint x="180" y="1160" as="targetPoint" />
            <mxPoint x="140" y="1279" as="sourcePoint" />
            <Array as="points">
              <mxPoint x="140" y="1280" />
              <mxPoint x="180" y="1280" />
            </Array>
          </mxGeometry>
        </mxCell>
        <mxCell id="mnPYQXHGAl356lRwc3sJ-176" value="Delete Cart" style="rounded=1;whiteSpace=wrap;html=1;arcSize=40;fontColor=#000000;fillColor=#ffffc0;strokeColor=#ff0000;" parent="1" vertex="1">
          <mxGeometry x="120" y="1140" width="120" height="40" as="geometry" />
        </mxCell>
        <mxCell id="mnPYQXHGAl356lRwc3sJ-178" value="" style="edgeStyle=orthogonalEdgeStyle;html=1;verticalAlign=bottom;endArrow=open;endSize=8;strokeColor=#ff0000;rounded=0;exitX=0.5;exitY=0;exitDx=0;exitDy=0;entryX=0;entryY=0.5;entryDx=0;entryDy=0;" parent="1" source="mnPYQXHGAl356lRwc3sJ-176" target="mnPYQXHGAl356lRwc3sJ-179" edge="1">
          <mxGeometry relative="1" as="geometry">
            <mxPoint x="210" y="-90" as="targetPoint" />
            <mxPoint x="79.74000000000001" y="1010" as="sourcePoint" />
            <Array as="points">
              <mxPoint x="180" y="-170" />
            </Array>
          </mxGeometry>
        </mxCell>
        <mxCell id="mnPYQXHGAl356lRwc3sJ-179" value="" style="rhombus;whiteSpace=wrap;html=1;fontColor=#000000;fillColor=#ffffc0;strokeColor=#ff0000;" parent="1" vertex="1">
          <mxGeometry x="400" y="-190" width="80" height="40" as="geometry" />
        </mxCell>
        <mxCell id="mnPYQXHGAl356lRwc3sJ-180" value="" style="edgeStyle=orthogonalEdgeStyle;html=1;align=left;verticalAlign=top;endArrow=open;endSize=8;strokeColor=#ff0000;rounded=0;" parent="1" source="mnPYQXHGAl356lRwc3sJ-179" edge="1">
          <mxGeometry x="-1" relative="1" as="geometry">
            <mxPoint x="440" y="-90" as="targetPoint" />
          </mxGeometry>
        </mxCell>
        <mxCell id="mnPYQXHGAl356lRwc3sJ-181" value="Arrive at Homepage" style="rounded=1;whiteSpace=wrap;html=1;arcSize=40;fontColor=#000000;fillColor=#ffffc0;strokeColor=#ff0000;" parent="1" vertex="1">
          <mxGeometry x="380" y="-90" width="120" height="40" as="geometry" />
        </mxCell>
        <mxCell id="mnPYQXHGAl356lRwc3sJ-182" value="" style="edgeStyle=orthogonalEdgeStyle;html=1;verticalAlign=bottom;endArrow=open;endSize=8;strokeColor=#ff0000;rounded=0;" parent="1" source="mnPYQXHGAl356lRwc3sJ-181" edge="1">
          <mxGeometry relative="1" as="geometry">
            <mxPoint x="440" y="10" as="targetPoint" />
          </mxGeometry>
        </mxCell>
        <mxCell id="mnPYQXHGAl356lRwc3sJ-183" value="yes" style="edgeStyle=orthogonalEdgeStyle;html=1;align=left;verticalAlign=top;endArrow=open;endSize=8;strokeColor=#ff0000;rounded=0;" parent="1" edge="1">
          <mxGeometry x="-0.9481" relative="1" as="geometry">
            <mxPoint x="400" y="-170" as="targetPoint" />
            <mxPoint x="60" y="1280" as="sourcePoint" />
            <Array as="points">
              <mxPoint x="-9" y="1281" />
              <mxPoint x="-9" y="-170" />
            </Array>
            <mxPoint x="1" as="offset" />
          </mxGeometry>
        </mxCell>
        <mxCell id="PvshmToqYP1jJva8URll-16" value="Product" style="swimlane;fontStyle=0;childLayout=stackLayout;horizontal=1;startSize=26;horizontalStack=0;resizeParent=1;resizeParentMax=0;resizeLast=0;collapsible=1;marginBottom=0;align=center;fontSize=14;" parent="1" vertex="1">
          <mxGeometry x="1040" y="-120" width="160" height="146" as="geometry" />
        </mxCell>
        <mxCell id="PvshmToqYP1jJva8URll-17" value="ID" style="text;strokeColor=none;fillColor=none;spacingLeft=4;spacingRight=4;overflow=hidden;rotatable=0;points=[[0,0.5],[1,0.5]];portConstraint=eastwest;fontSize=12;whiteSpace=wrap;html=1;" parent="PvshmToqYP1jJva8URll-16" vertex="1">
          <mxGeometry y="26" width="160" height="30" as="geometry" />
        </mxCell>
        <mxCell id="PvshmToqYP1jJva8URll-18" value="Price" style="text;strokeColor=none;fillColor=none;spacingLeft=4;spacingRight=4;overflow=hidden;rotatable=0;points=[[0,0.5],[1,0.5]];portConstraint=eastwest;fontSize=12;whiteSpace=wrap;html=1;" parent="PvshmToqYP1jJva8URll-16" vertex="1">
          <mxGeometry y="56" width="160" height="30" as="geometry" />
        </mxCell>
        <mxCell id="PvshmToqYP1jJva8URll-19" value="Name" style="text;strokeColor=none;fillColor=none;spacingLeft=4;spacingRight=4;overflow=hidden;rotatable=0;points=[[0,0.5],[1,0.5]];portConstraint=eastwest;fontSize=12;whiteSpace=wrap;html=1;" parent="PvshmToqYP1jJva8URll-16" vertex="1">
          <mxGeometry y="86" width="160" height="30" as="geometry" />
        </mxCell>
        <mxCell id="PvshmToqYP1jJva8URll-33" value="Stock" style="text;strokeColor=none;fillColor=none;spacingLeft=4;spacingRight=4;overflow=hidden;rotatable=0;points=[[0,0.5],[1,0.5]];portConstraint=eastwest;fontSize=12;whiteSpace=wrap;html=1;" parent="PvshmToqYP1jJva8URll-16" vertex="1">
          <mxGeometry y="116" width="160" height="30" as="geometry" />
        </mxCell>
        <mxCell id="PvshmToqYP1jJva8URll-24" value="Cart" style="swimlane;fontStyle=0;childLayout=stackLayout;horizontal=1;startSize=26;horizontalStack=0;resizeParent=1;resizeParentMax=0;resizeLast=0;collapsible=1;marginBottom=0;align=center;fontSize=14;" parent="1" vertex="1">
          <mxGeometry x="1350" y="95" width="160" height="146" as="geometry" />
        </mxCell>
        <mxCell id="PvshmToqYP1jJva8URll-25" value="ID" style="text;strokeColor=none;fillColor=none;spacingLeft=4;spacingRight=4;overflow=hidden;rotatable=0;points=[[0,0.5],[1,0.5]];portConstraint=eastwest;fontSize=12;whiteSpace=wrap;html=1;" parent="PvshmToqYP1jJva8URll-24" vertex="1">
          <mxGeometry y="26" width="160" height="30" as="geometry" />
        </mxCell>
        <mxCell id="PvshmToqYP1jJva8URll-26" value="List&amp;lt;Product&amp;gt;" style="text;strokeColor=none;fillColor=none;spacingLeft=4;spacingRight=4;overflow=hidden;rotatable=0;points=[[0,0.5],[1,0.5]];portConstraint=eastwest;fontSize=12;whiteSpace=wrap;html=1;" parent="PvshmToqYP1jJva8URll-24" vertex="1">
          <mxGeometry y="56" width="160" height="30" as="geometry" />
        </mxCell>
        <mxCell id="PvshmToqYP1jJva8URll-27" value="Total" style="text;strokeColor=none;fillColor=none;spacingLeft=4;spacingRight=4;overflow=hidden;rotatable=0;points=[[0,0.5],[1,0.5]];portConstraint=eastwest;fontSize=12;whiteSpace=wrap;html=1;" parent="PvshmToqYP1jJva8URll-24" vertex="1">
          <mxGeometry y="86" width="160" height="30" as="geometry" />
        </mxCell>
        <mxCell id="PvshmToqYP1jJva8URll-66" value="Card" style="text;strokeColor=none;fillColor=none;spacingLeft=4;spacingRight=4;overflow=hidden;rotatable=0;points=[[0,0.5],[1,0.5]];portConstraint=eastwest;fontSize=12;whiteSpace=wrap;html=1;" parent="PvshmToqYP1jJva8URll-24" vertex="1">
          <mxGeometry y="116" width="160" height="30" as="geometry" />
        </mxCell>
        <mxCell id="PvshmToqYP1jJva8URll-34" value="UserAccount" style="swimlane;fontStyle=0;childLayout=stackLayout;horizontal=1;startSize=26;horizontalStack=0;resizeParent=1;resizeParentMax=0;resizeLast=0;collapsible=1;marginBottom=0;align=center;fontSize=14;" parent="1" vertex="1">
          <mxGeometry x="1040" y="80" width="160" height="176" as="geometry" />
        </mxCell>
        <mxCell id="PvshmToqYP1jJva8URll-35" value="ID" style="text;strokeColor=none;fillColor=none;spacingLeft=4;spacingRight=4;overflow=hidden;rotatable=0;points=[[0,0.5],[1,0.5]];portConstraint=eastwest;fontSize=12;whiteSpace=wrap;html=1;" parent="PvshmToqYP1jJva8URll-34" vertex="1">
          <mxGeometry y="26" width="160" height="30" as="geometry" />
        </mxCell>
        <mxCell id="PvshmToqYP1jJva8URll-36" value="Username" style="text;strokeColor=none;fillColor=none;spacingLeft=4;spacingRight=4;overflow=hidden;rotatable=0;points=[[0,0.5],[1,0.5]];portConstraint=eastwest;fontSize=12;whiteSpace=wrap;html=1;" parent="PvshmToqYP1jJva8URll-34" vertex="1">
          <mxGeometry y="56" width="160" height="30" as="geometry" />
        </mxCell>
        <mxCell id="PvshmToqYP1jJva8URll-37" value="Password" style="text;strokeColor=none;fillColor=none;spacingLeft=4;spacingRight=4;overflow=hidden;rotatable=0;points=[[0,0.5],[1,0.5]];portConstraint=eastwest;fontSize=12;whiteSpace=wrap;html=1;" parent="PvshmToqYP1jJva8URll-34" vertex="1">
          <mxGeometry y="86" width="160" height="30" as="geometry" />
        </mxCell>
        <mxCell id="PvshmToqYP1jJva8URll-42" value="List&amp;lt;Address&amp;gt;" style="text;strokeColor=none;fillColor=none;spacingLeft=4;spacingRight=4;overflow=hidden;rotatable=0;points=[[0,0.5],[1,0.5]];portConstraint=eastwest;fontSize=12;whiteSpace=wrap;html=1;" parent="PvshmToqYP1jJva8URll-34" vertex="1">
          <mxGeometry y="116" width="160" height="30" as="geometry" />
        </mxCell>
        <mxCell id="PvshmToqYP1jJva8URll-41" value="List&amp;lt;Card&amp;gt;" style="text;strokeColor=none;fillColor=none;spacingLeft=4;spacingRight=4;overflow=hidden;rotatable=0;points=[[0,0.5],[1,0.5]];portConstraint=eastwest;fontSize=12;whiteSpace=wrap;html=1;" parent="PvshmToqYP1jJva8URll-34" vertex="1">
          <mxGeometry y="146" width="160" height="30" as="geometry" />
        </mxCell>
        <mxCell id="PvshmToqYP1jJva8URll-44" value="Address" style="swimlane;fontStyle=0;childLayout=stackLayout;horizontal=1;startSize=26;horizontalStack=0;resizeParent=1;resizeParentMax=0;resizeLast=0;collapsible=1;marginBottom=0;align=center;fontSize=14;" parent="1" vertex="1">
          <mxGeometry x="820" y="250" width="160" height="236" as="geometry" />
        </mxCell>
        <mxCell id="PvshmToqYP1jJva8URll-45" value="ID" style="text;strokeColor=none;fillColor=none;spacingLeft=4;spacingRight=4;overflow=hidden;rotatable=0;points=[[0,0.5],[1,0.5]];portConstraint=eastwest;fontSize=12;whiteSpace=wrap;html=1;" parent="PvshmToqYP1jJva8URll-44" vertex="1">
          <mxGeometry y="26" width="160" height="30" as="geometry" />
        </mxCell>
        <mxCell id="PvshmToqYP1jJva8URll-46" value="Street 1" style="text;strokeColor=none;fillColor=none;spacingLeft=4;spacingRight=4;overflow=hidden;rotatable=0;points=[[0,0.5],[1,0.5]];portConstraint=eastwest;fontSize=12;whiteSpace=wrap;html=1;" parent="PvshmToqYP1jJva8URll-44" vertex="1">
          <mxGeometry y="56" width="160" height="30" as="geometry" />
        </mxCell>
        <mxCell id="PvshmToqYP1jJva8URll-48" value="Street 2" style="text;strokeColor=none;fillColor=none;spacingLeft=4;spacingRight=4;overflow=hidden;rotatable=0;points=[[0,0.5],[1,0.5]];portConstraint=eastwest;fontSize=12;whiteSpace=wrap;html=1;" parent="PvshmToqYP1jJva8URll-44" vertex="1">
          <mxGeometry y="86" width="160" height="30" as="geometry" />
        </mxCell>
        <mxCell id="PvshmToqYP1jJva8URll-47" value="City" style="text;strokeColor=none;fillColor=none;spacingLeft=4;spacingRight=4;overflow=hidden;rotatable=0;points=[[0,0.5],[1,0.5]];portConstraint=eastwest;fontSize=12;whiteSpace=wrap;html=1;" parent="PvshmToqYP1jJva8URll-44" vertex="1">
          <mxGeometry y="116" width="160" height="30" as="geometry" />
        </mxCell>
        <mxCell id="PvshmToqYP1jJva8URll-49" value="State/Region" style="text;strokeColor=none;fillColor=none;spacingLeft=4;spacingRight=4;overflow=hidden;rotatable=0;points=[[0,0.5],[1,0.5]];portConstraint=eastwest;fontSize=12;whiteSpace=wrap;html=1;" parent="PvshmToqYP1jJva8URll-44" vertex="1">
          <mxGeometry y="146" width="160" height="30" as="geometry" />
        </mxCell>
        <mxCell id="PvshmToqYP1jJva8URll-50" value="PostalCode" style="text;strokeColor=none;fillColor=none;spacingLeft=4;spacingRight=4;overflow=hidden;rotatable=0;points=[[0,0.5],[1,0.5]];portConstraint=eastwest;fontSize=12;whiteSpace=wrap;html=1;" parent="PvshmToqYP1jJva8URll-44" vertex="1">
          <mxGeometry y="176" width="160" height="30" as="geometry" />
        </mxCell>
        <mxCell id="PvshmToqYP1jJva8URll-51" value="Country" style="text;strokeColor=none;fillColor=none;spacingLeft=4;spacingRight=4;overflow=hidden;rotatable=0;points=[[0,0.5],[1,0.5]];portConstraint=eastwest;fontSize=12;whiteSpace=wrap;html=1;" parent="PvshmToqYP1jJva8URll-44" vertex="1">
          <mxGeometry y="206" width="160" height="30" as="geometry" />
        </mxCell>
        <mxCell id="PvshmToqYP1jJva8URll-52" value="Card" style="swimlane;fontStyle=0;childLayout=stackLayout;horizontal=1;startSize=26;horizontalStack=0;resizeParent=1;resizeParentMax=0;resizeLast=0;collapsible=1;marginBottom=0;align=center;fontSize=14;" parent="1" vertex="1">
          <mxGeometry x="1260" y="314" width="160" height="206" as="geometry" />
        </mxCell>
        <mxCell id="PvshmToqYP1jJva8URll-53" value="ID" style="text;strokeColor=none;fillColor=none;spacingLeft=4;spacingRight=4;overflow=hidden;rotatable=0;points=[[0,0.5],[1,0.5]];portConstraint=eastwest;fontSize=12;whiteSpace=wrap;html=1;" parent="PvshmToqYP1jJva8URll-52" vertex="1">
          <mxGeometry y="26" width="160" height="30" as="geometry" />
        </mxCell>
        <mxCell id="PvshmToqYP1jJva8URll-54" value="Number" style="text;strokeColor=none;fillColor=none;spacingLeft=4;spacingRight=4;overflow=hidden;rotatable=0;points=[[0,0.5],[1,0.5]];portConstraint=eastwest;fontSize=12;whiteSpace=wrap;html=1;" parent="PvshmToqYP1jJva8URll-52" vertex="1">
          <mxGeometry y="56" width="160" height="30" as="geometry" />
        </mxCell>
        <mxCell id="PvshmToqYP1jJva8URll-55" value="CVV" style="text;strokeColor=none;fillColor=none;spacingLeft=4;spacingRight=4;overflow=hidden;rotatable=0;points=[[0,0.5],[1,0.5]];portConstraint=eastwest;fontSize=12;whiteSpace=wrap;html=1;" parent="PvshmToqYP1jJva8URll-52" vertex="1">
          <mxGeometry y="86" width="160" height="30" as="geometry" />
        </mxCell>
        <mxCell id="PvshmToqYP1jJva8URll-56" value="ExpireMonth" style="text;strokeColor=none;fillColor=none;spacingLeft=4;spacingRight=4;overflow=hidden;rotatable=0;points=[[0,0.5],[1,0.5]];portConstraint=eastwest;fontSize=12;whiteSpace=wrap;html=1;" parent="PvshmToqYP1jJva8URll-52" vertex="1">
          <mxGeometry y="116" width="160" height="30" as="geometry" />
        </mxCell>
        <mxCell id="PvshmToqYP1jJva8URll-57" value="ExpireYear" style="text;strokeColor=none;fillColor=none;spacingLeft=4;spacingRight=4;overflow=hidden;rotatable=0;points=[[0,0.5],[1,0.5]];portConstraint=eastwest;fontSize=12;whiteSpace=wrap;html=1;" parent="PvshmToqYP1jJva8URll-52" vertex="1">
          <mxGeometry y="146" width="160" height="30" as="geometry" />
        </mxCell>
        <mxCell id="PvshmToqYP1jJva8URll-58" value="Address" style="text;strokeColor=none;fillColor=none;spacingLeft=4;spacingRight=4;overflow=hidden;rotatable=0;points=[[0,0.5],[1,0.5]];portConstraint=eastwest;fontSize=12;whiteSpace=wrap;html=1;" parent="PvshmToqYP1jJva8URll-52" vertex="1">
          <mxGeometry y="176" width="160" height="30" as="geometry" />
        </mxCell>
        <mxCell id="PvshmToqYP1jJva8URll-60" value="" style="edgeStyle=entityRelationEdgeStyle;fontSize=12;html=1;endArrow=ERmandOne;startArrow=ERmandOne;rounded=0;" parent="1" source="PvshmToqYP1jJva8URll-34" target="PvshmToqYP1jJva8URll-25" edge="1">
          <mxGeometry width="100" height="100" relative="1" as="geometry">
            <mxPoint x="1490" y="170" as="sourcePoint" />
            <mxPoint x="1590" y="70" as="targetPoint" />
          </mxGeometry>
        </mxCell>
        <mxCell id="PvshmToqYP1jJva8URll-63" value="" style="edgeStyle=entityRelationEdgeStyle;fontSize=12;html=1;endArrow=ERoneToMany;startArrow=ERmandOne;rounded=0;" parent="1" source="PvshmToqYP1jJva8URll-42" target="PvshmToqYP1jJva8URll-44" edge="1">
          <mxGeometry width="100" height="100" relative="1" as="geometry">
            <mxPoint x="1080" y="420" as="sourcePoint" />
            <mxPoint x="1270" y="280" as="targetPoint" />
          </mxGeometry>
        </mxCell>
        <mxCell id="PvshmToqYP1jJva8URll-64" value="" style="edgeStyle=entityRelationEdgeStyle;fontSize=12;html=1;endArrow=ERoneToMany;startArrow=ERmandOne;rounded=0;" parent="1" source="PvshmToqYP1jJva8URll-41" target="PvshmToqYP1jJva8URll-52" edge="1">
          <mxGeometry width="100" height="100" relative="1" as="geometry">
            <mxPoint x="1110" y="380" as="sourcePoint" />
            <mxPoint x="1020" y="537" as="targetPoint" />
          </mxGeometry>
        </mxCell>
        <mxCell id="PvshmToqYP1jJva8URll-65" value="" style="edgeStyle=entityRelationEdgeStyle;fontSize=12;html=1;endArrow=ERmandOne;startArrow=ERmandOne;rounded=0;exitX=0.99;exitY=0.063;exitDx=0;exitDy=0;exitPerimeter=0;" parent="1" source="PvshmToqYP1jJva8URll-44" target="PvshmToqYP1jJva8URll-58" edge="1">
          <mxGeometry width="100" height="100" relative="1" as="geometry">
            <mxPoint x="1270" y="350" as="sourcePoint" />
            <mxPoint x="1370" y="250" as="targetPoint" />
          </mxGeometry>
        </mxCell>
        <mxCell id="PvshmToqYP1jJva8URll-67" value="" style="edgeStyle=entityRelationEdgeStyle;fontSize=12;html=1;endArrow=ERmandOne;startArrow=ERmandOne;rounded=0;" parent="1" source="PvshmToqYP1jJva8URll-24" target="PvshmToqYP1jJva8URll-52" edge="1">
          <mxGeometry width="100" height="100" relative="1" as="geometry">
            <mxPoint x="958" y="275" as="sourcePoint" />
            <mxPoint x="1300" y="515" as="targetPoint" />
          </mxGeometry>
        </mxCell>
        <mxCell id="PvshmToqYP1jJva8URll-68" value="" style="edgeStyle=entityRelationEdgeStyle;fontSize=12;html=1;endArrow=ERmany;startArrow=ERzeroToMany;rounded=0;endFill=0;startFill=0;" parent="1" target="PvshmToqYP1jJva8URll-26" edge="1">
          <mxGeometry width="100" height="100" relative="1" as="geometry">
            <mxPoint x="1200" y="-43" as="sourcePoint" />
            <mxPoint x="1370" y="-80" as="targetPoint" />
          </mxGeometry>
        </mxCell>
        <mxCell id="Wagh96F8IGxadw7LktgD-1" style="edgeStyle=orthogonalEdgeStyle;rounded=0;orthogonalLoop=1;jettySize=auto;html=1;exitX=1;exitY=0.5;exitDx=0;exitDy=0;entryX=0;entryY=0.5;entryDx=0;entryDy=0;startArrow=ERmandOne;startFill=0;endArrow=ERmandOne;endFill=0;" edge="1" parent="1" source="PvshmToqYP1jJva8URll-50" target="PvshmToqYP1jJva8URll-66">
          <mxGeometry relative="1" as="geometry">
            <Array as="points">
              <mxPoint x="1220" y="441" />
              <mxPoint x="1220" y="226" />
            </Array>
          </mxGeometry>
        </mxCell>
      </root>
    </mxGraphModel>
  </diagram>
</mxfile>
